<svg xmlns="http://www.w3.org/2000/svg" viewBox="0 0 2389 352" preserveAspectRatio="xMidYMid" width="2389" height="352" xmlns:xlink="http://www.w3.org/1999/xlink" style="shape-rendering:auto;display:block;background-position-x:0%;background-position-y:0%;background-size:auto;background-origin:padding-box;background-clip:border-box;background:scroll rgb(255, 255, 255) none  repeat;width:2389px;height:352px;;animation:none"><g style="transform:matrix(1, 0, 0, -1, 0, 352);;animation:none"><linearGradient y2="0" y1="0" x2="1" x1="0" id="lg-670xe69zok3"><stop offset="0" stop-color="#ffb684"></stop>

  
<stop offset="1" stop-color="#ffbd8e"></stop></linearGradient>
<path opacity="0.4" fill="url(#lg-670xe69zok3)" d="M 0 0 L 0 136.03 Q 108.59 270.51 217.18 226.21 T 434.36 92.33 T 651.55 70.92 T 868.73 185.34 T 1085.91 165.63 T 1303.09 57.14 T 1520.27 0.27 T 1737.45 104.33 T 1954.64 -9.68 T 2171.82 27.02 T 2389 63.96 L 2389 0 Z" style="fill:url('#lg-670xe69zok3');opacity:0.4;;animation:none"></path>
<path opacity="0.4" fill="url(#lg-670xe69zok3)" d="M 0 0 L 0 114.93 Q 108.59 189.942 217.18 173.771 T 434.36 73.6563 T 651.55 174.497 T 868.73 147.928 T 1085.91 8.29542 T 1303.09 106.136 T 1520.27 53.2944 T 1737.45 55.5015 T 1954.64 -25.9807 T 2171.82 -69.1216 T 2389 -22.3839 L 2389 0 Z" style="fill:url('#lg-670xe69zok3');opacity:0.4;;animation:none"></path>
<path opacity="0.4" fill="url(#lg-670xe69zok3)" d="M 0 0 L 0 219.855 Q 108.59 115.696 217.18 89.3826 T 434.36 224.014 T 651.55 184.657 T 868.73 34.061 T 1085.91 149.297 T 1303.09 87.4543 T 1520.27 82.8146 T 1737.45 6.85771 T 1954.64 65.0384 T 2171.82 16.3603 T 2389 -59.0489 L 2389 0 Z" style="fill:url('#lg-670xe69zok3');opacity:0.4;;animation:none"></path>
<path opacity="0.4" fill="url(#lg-670xe69zok3)" d="M 0 0 L 0 180.485 Q 108.59 142.321 217.18 118.823 T 434.36 140.006 T 651.55 118.376 T 868.73 28.6441 T 1085.91 125.081 T 1303.09 88.4692 T 1520.27 66.4054 T 1737.45 -23.779 T 1954.64 6.263 T 2171.82 -27.3315 T 2389 -96.6424 L 2389 0 Z" style="fill:url('#lg-670xe69zok3');opacity:0.4;;animation:none"></path>
<path opacity="0.4" fill="url(#lg-670xe69zok3)" d="M 0 0 L 0 186.31 Q 108.59 145.077 217.18 121.815 T 434.36 180.241 T 651.55 183.069 T 868.73 136.834 T 1085.91 73.9636 T 1303.09 74.0269 T 1520.27 21.6521 T 1737.45 60.3584 T 1954.64 69.0025 T 2171.82 46.3097 T 2389 19.0038 L 2389 0 Z" style="fill:url('#lg-670xe69zok3');opacity:0.4;;animation:none"></path>
<g></g></g><!-- [ldio] generated by https://loading.io --></svg>